<?xml version="1.0" encoding="utf-8"?>
<!-- Generator: Adobe Illustrator 24.1.1, SVG Export Plug-In . SVG Version: 6.00 Build 0)  -->
<svg version="1.1" baseProfile="basic" id="Ebene_1"
	 xmlns="http://www.w3.org/2000/svg" xmlns:xlink="http://www.w3.org/1999/xlink" x="0px" y="0px" viewBox="0 0 242 242"
	 xml:space="preserve">

<g>
	<g>
		<g>
			<path fill="#FF00BD" d="M229.2,83c-2.6,0-4.8-2-5-4.7c-0.9-13.8-6.6-25-17.5-34c-16.2-13.5-37-15.2-55.4-4.5
				c-6.6,3.8-12.7,8.7-19.1,13.8c-3,2.4-6.1,4.9-9.3,7.3l-3.6,2.7l-3.5-3.6c-0.5-0.6-1.4-1.5-2.3-2.4c-9.2-9.5-17.9-15.9-27.2-20
				c-15-6.6-31.4-5.7-45.1,2.4c-13.6,8.1-22.2,22-23.5,38c-0.2,2.8-2.7,4.8-5.4,4.6c-2.8-0.2-4.8-2.6-4.6-5.4
				c1.6-19.3,11.9-36,28.3-45.8c16.4-9.8,36.2-10.9,54.2-3c10.5,4.6,20,11.5,30,21.8c1.9-1.5,3.7-2.9,5.5-4.4
				c6.7-5.4,13.1-10.5,20.3-14.6c22.2-12.9,47.2-10.8,66.8,5.5c12.9,10.7,20,24.5,21.1,41c0.2,2.8-1.9,5.1-4.7,5.3
				C229.4,83,229.3,83,229.2,83z"/>
		</g>
		<g>
			<path fill="#FF00BD" d="M121,219.2c-2.1,0-4.1-0.5-5.7-1.4c-33.9-20.5-58.9-41.2-78.5-65.4c-1.7-2.1-1.4-5.3,0.7-7
				c2.1-1.7,5.3-1.4,7,0.7c18.8,23.2,42.9,43.2,75.8,63.1c0.3,0.1,1,0.1,1.3,0c30.2-18.1,54.1-37.6,73-59.6c1-1.2,2-2.3,2.9-3.5
				c1.8-2.1,4.9-2.4,7-0.7c2.1,1.8,2.4,4.9,0.7,7c-1,1.2-2,2.4-3.1,3.7c-19.6,22.9-44.3,43.1-75.6,61.8
				C125,218.8,123,219.2,121,219.2z M120.2,209.2L120.2,209.2L120.2,209.2z"/>
		</g>
	</g>
	<g>
		<path fill="#FF00BD" d="M68.2,90.6c0.8,0,1.3,0,1.7,0.1c0.4,0,0.8,0.2,1.3,0.5c0.5,0.3,0.8,0.7,1,1.3c0.2,0.6,0.3,1.5,0.3,2.5
			c0,1.1-0.1,1.9-0.3,2.5c-0.2,0.6-0.5,1.1-1,1.3s-0.9,0.4-1.3,0.5s-1,0.1-1.8,0.1H52.9v5h9.8c0.8,0,1.4,0,1.8,0.1
			c0.4,0,0.8,0.2,1.3,0.5c0.9,0.5,1.3,1.8,1.3,4c0,2.3-0.6,3.7-1.9,4.2c-0.5,0.2-1.4,0.3-2.6,0.3h-9.8v9.4c0,0.8,0,1.4-0.1,1.8
			c0,0.4-0.2,0.8-0.5,1.3c-0.5,0.9-1.8,1.3-3.9,1.3c-2.3,0-3.7-0.6-4.1-1.9c-0.2-0.5-0.3-1.4-0.3-2.5V95c0-1.7,0.3-2.9,1-3.5
			c0.6-0.6,1.8-0.9,3.6-0.9H68.2z"/>
		<path fill="#FF00BD" d="M75.8,92.9c0-0.8,0-1.3,0.1-1.7c0-0.4,0.2-0.8,0.4-1.3c0.5-0.9,1.8-1.3,3.9-1.3c2,0,3.3,0.5,3.8,1.3
			c0.3,0.5,0.4,1,0.5,1.4c0.1,0.4,0.1,1,0.1,1.8v23.1c0,1.2,0.1,2,0.3,2.3c0.2,0.3,0.6,0.5,1.3,0.5c0.7,0,1.1,0,1.4,0.1
			s0.5,0.2,0.9,0.4c0.7,0.4,1,1.6,1,3.6c0,2.1-0.3,3.4-1,3.8c-0.9,0.6-2.9,0.7-6.2,0.3c-2.6-0.3-4.2-1.2-5-2.5
			c-0.9-1.6-1.4-4.2-1.4-7.8V92.9z"/>
		<path fill="#FF00BD" d="M109.3,103.7c0.2-1.9,1.5-2.8,3.9-2.8c1.3,0,2.3,0.1,2.9,0.3c0.6,0.2,1.1,0.5,1.3,1s0.4,0.9,0.5,1.3
			c0,0.4,0.1,1,0.1,1.7v17.5c0,0.8,0,1.3-0.1,1.7c-0.1,0.4-0.2,0.8-0.4,1.3c-0.5,0.9-1.6,1.3-3.4,1.3c-1.8,0-3-0.2-3.6-0.7
			c-0.6-0.4-1-1.1-1.1-2c-1.2,1.8-3.3,2.7-6.2,2.7c-2.9,0-5.6-1.3-8-4c-2.5-2.6-3.7-5.7-3.7-9.2s1.2-6.5,3.7-9.2
			c2.5-2.6,5.2-3.9,8.2-3.9c1.1,0,2.2,0.2,3.1,0.6c0.9,0.4,1.6,0.8,2,1.1C108.8,103.1,109.1,103.4,109.3,103.7z M100.2,114.1
			c0,1.1,0.4,2.1,1.3,3c0.9,0.9,1.9,1.3,3.2,1.3c1.2,0,2.3-0.5,3.1-1.4c0.8-0.9,1.2-1.9,1.2-3s-0.4-2.1-1.2-3
			c-0.8-0.9-1.8-1.4-3.2-1.4s-2.4,0.5-3.2,1.4C100.6,112,100.2,113,100.2,114.1z"/>
		<path fill="#FF00BD" d="M136.6,100.9c3.3,0,6.1,1.3,8.3,3.8c2.2,2.6,3.3,5.7,3.3,9.3v8.8c0,0.8,0,1.3-0.1,1.7
			c0,0.4-0.2,0.8-0.4,1.3c-0.5,0.9-1.8,1.4-3.9,1.4c-2.4,0-3.7-0.6-4.1-1.9c-0.2-0.6-0.3-1.4-0.3-2.5V114c0-1.4-0.4-2.4-1.2-3.2
			c-0.8-0.8-1.8-1.1-3.2-1.1c-1.3,0-2.4,0.4-3.2,1.2c-0.8,0.8-1.2,1.9-1.2,3.2v8.8c0,0.8,0,1.3-0.1,1.7c0,0.4-0.2,0.8-0.5,1.3
			c-0.4,0.9-1.7,1.4-3.9,1.4c-2.1,0-3.4-0.5-3.8-1.4c-0.2-0.5-0.4-0.9-0.4-1.3s-0.1-1-0.1-1.7v-17.7c0-0.7,0-1.3,0.1-1.7
			c0-0.4,0.2-0.8,0.5-1.3c0.5-0.8,1.8-1.3,3.9-1.3c2,0,3.3,0.4,3.7,1.1c0.3,0.6,0.5,1.3,0.5,2c0.1-0.2,0.4-0.6,0.9-1
			c0.5-0.4,0.9-0.8,1.4-1C134,101.3,135.3,100.9,136.6,100.9z"/>
		<path fill="#FF00BD" d="M167.8,114.1l6.7,5.5c0.8,0.7,1.4,1.2,1.6,1.6s0.3,0.7,0.3,1c0,0.8-0.5,1.9-1.5,3.3
			c-1.1,1.4-2.1,2.1-3,2.1c-0.7,0-1.8-0.5-3-1.5l-0.5-0.3c-0.8-0.6-2-1.7-3.5-3.3c-1.6-1.6-2.8-2.7-3.7-3.4v3.9c0,0.8,0,1.3-0.1,1.7
			c0,0.4-0.2,0.8-0.5,1.3c-0.4,0.9-1.7,1.3-3.9,1.3c-2.1,0-3.4-0.5-3.8-1.3c-0.2-0.5-0.4-0.9-0.4-1.3c0-0.4-0.1-1-0.1-1.7V92.9
			c0-0.8,0-1.3,0.1-1.7c0-0.4,0.2-0.8,0.4-1.3c0.5-0.9,1.8-1.3,3.9-1.3c1.6,0,2.7,0.3,3.4,0.8c0.6,0.5,0.9,1.2,0.9,2.2
			c0,0.3,0,0.8,0,1.4v15.8c0.6-0.5,1.5-1.3,2.7-2.5s2.1-2,2.7-2.5l0.6-0.4c1.2-0.9,2.2-1.3,3-1.3s1.8,0.7,2.9,2
			c1.1,1.4,1.6,2.4,1.6,3.2s-0.6,1.7-1.8,2.7L167.8,114.1z"/>
		<path fill="#FF00BD" d="M197,101.2c0.6,0.2,1.2,0.5,1.6,1c0.4,0.5,0.6,1.3,0.6,2.3c0,1.1-0.3,2.2-0.9,3.5
			c-0.6,1.3-1.6,1.9-2.8,1.9c-0.6,0-1.2-0.1-1.7-0.4c-0.5-0.3-1.3-0.4-2.2-0.4s-1.7,0.3-2.5,0.9c-0.8,0.6-1.2,1.4-1.2,2.3v10.5
			c0,0.8,0,1.3-0.1,1.7c0,0.4-0.2,0.8-0.5,1.3c-0.5,0.9-1.8,1.3-3.9,1.3c-1.6,0-2.8-0.3-3.4-0.8c-0.5-0.5-0.8-1.2-0.9-2.2
			c0-0.3,0-0.8,0-1.5v-17.5c0-0.8,0-1.3,0.1-1.7s0.2-0.8,0.4-1.3c0.5-0.9,1.8-1.3,3.9-1.3c2,0,3.3,0.4,3.8,1.1
			c0.4,0.5,0.5,1.1,0.5,1.7c0.2-0.2,0.4-0.5,0.7-0.9c0.3-0.3,1-0.8,2-1.3c1-0.6,1.9-0.8,2.7-0.8s1.4,0,2,0.1
			C195.8,100.9,196.4,101,197,101.2z"/>
	</g>
</g>
</svg>
